HIERARCHY
ROOT Hips
{
	OFFSET 0.00 0.00 0.00
	CHANNELS 6 Xposition Yposition Zposition Xrotation Yrotation Zrotation
	JOINT Spine
	{
		OFFSET 0.00000 7.06766 0.00000
		CHANNELS 3 Xrotation Yrotation Zrotation
		JOINT Head
		{
			OFFSET 0.00000 15.03989 0.00000
			CHANNELS 3 Xrotation Yrotation Zrotation
			End Site
			{
				OFFSET 0.00000 4.52755 0.00000
			}
		}
		JOINT LeftShoulder
		{
			OFFSET 0.00000 10.53037 0.00000
			CHANNELS 3 Xrotation Yrotation Zrotation
			JOINT LeftArm
			{
				OFFSET 7.02886 0.00000 0.00000
				CHANNELS 3 Xrotation Yrotation Zrotation
				JOINT LeftForeArm
				{
					OFFSET 10.79770 0.00000 0.00000
					CHANNELS 3 Yrotation Zrotation Xrotation
					JOINT LeftHand
					{
						OFFSET 7.90744 0.00000 0.00000
						CHANNELS 3 Xrotation Yrotation Zrotation
						JOINT LeftHandThumb1
						{
							OFFSET 0.00000 0.00000 0.00000
							CHANNELS 3 Xrotation Zrotation Yrotation
							End Site
							{
								OFFSET 0.00000 0.00000 3.93700
							}
						}
						End Site
						{
							OFFSET 3.93700 0.00000 0.00000
						}
					}
				}
			}
		}
		JOINT RightShoulder
		{
			OFFSET 0.00000 10.53037 0.00000
			CHANNELS 3 Xrotation Yrotation Zrotation
			JOINT RightArm
			{
				OFFSET -7.02886 0.00000 0.00000
				CHANNELS 3 Xrotation Yrotation Zrotation
				JOINT RightForeArm
				{
					OFFSET -10.79770 0.00000 0.00000
					CHANNELS 3 Yrotation Zrotation Xrotation
					JOINT RightHand
					{
						OFFSET -7.90744 0.00000 0.00000
						CHANNELS 3 Xrotation Yrotation Zrotation
						JOINT RightHandThumb1
						{
							OFFSET 0.00000 0.00000 0.00000
							CHANNELS 3 Xrotation Zrotation Yrotation
							End Site
							{
								OFFSET 0.00000 0.00000 3.93700
							}
						}
						End Site
						{
							OFFSET -3.93700 0.00000 0.00000
						}
					}
				}
			}
		}
	}
	JOINT LeftUpLeg
	{
		OFFSET 4.01300 0.00000 0.00000
		CHANNELS 3 Xrotation Yrotation Zrotation
		JOINT LeftLeg
		{
			OFFSET 0.00000 -16.89976 0.00000
			CHANNELS 3 Xrotation Yrotation Zrotation
			JOINT LeftFoot
			{
				OFFSET 0.00000 -17.38918 0.00000
				CHANNELS 3 Xrotation Yrotation Zrotation
				JOINT LeftToeBase
				{
					OFFSET 0.00000 -1.27456 4.75673
					CHANNELS 3 Xrotation Yrotation Zrotation
					End Site
					{
						OFFSET 0.00000 0.00000 2.95275
					}
				}
			}
		}
	}
	JOINT RightUpLeg
	{
		OFFSET -4.01300 0.00000 0.00000
		CHANNELS 3 Xrotation Yrotation Zrotation
		JOINT RightLeg
		{
			OFFSET 0.00000 -16.89976 0.00000
			CHANNELS 3 Xrotation Yrotation Zrotation
			JOINT RightFoot
			{
				OFFSET 0.00000 -17.38918 0.00000
				CHANNELS 3 Xrotation Yrotation Zrotation
				JOINT RightToeBase
				{
					OFFSET 0.00000 -1.27456 4.75673
					CHANNELS 3 Xrotation Yrotation Zrotation
					End Site
					{
						OFFSET 0.00000 0.00000 2.95275
					}
				}
			}
		}
	}
}
MOTION
Frames: 7
Frame Time: 0.008333
 18.6363 32.6478 -17.4549 171.5748 6.4478 177.7039 -18.7022 -0.1791 8.7362 10.7183 -7.2745 -8.7780 -27.4723 13.5190 -5.4000 29.3973 29.0665 -64.5080 -8.9133 -0.0000 3.5817 -0.0996 1.9846 2.8729 33.1476 -0.0000 26.2537 -19.5214 4.8007 -42.4107 -42.7775 50.8631 -8.6801 11.6399 -0.0000 40.8046 -0.5042 -1.4090 -19.6902 32.8623 0.0000 -24.3270 11.6407 0.1393 -18.4381 -1.3035 -0.0000 -0.0000 -32.8584 24.1071 2.9969 21.6587 -0.0000 -0.0000 -23.5456 4.5180 24.9615 -1.6935 -0.0000 -0.0000 -5.9767 -30.4241 -13.7718 20.5764 -0.0000 -0.0000
 18.6047 32.6483 -17.4425 171.5684 6.4796 177.6772 -18.6108 -0.1791 8.9712 10.5893 -7.1344 -8.9047 -27.4180 13.5191 -5.4548 29.3341 29.0808 -64.6062 -8.8679 -0.0000 3.7517 -0.0949 2.0047 2.7102 33.1476 -0.0000 26.2537 -19.5335 4.8079 -42.3623 -42.8734 50.8715 -8.6844 11.8976 -0.0000 40.8999 -0.5550 -1.5377 -19.8492 32.8623 0.0000 -24.3270 11.6201 0.2332 -18.4526 -1.2713 -0.0000 0.0000 -32.9148 24.0617 2.8109 22.0883 0.0000 0.0000 -23.5878 4.5187 24.9540 -1.6714 0.0000 -0.0000 -5.9837 -30.4306 -13.8224 20.5695 0.0000 -0.0000
 18.5721 32.6482 -17.4297 171.5588 6.5088 177.6441 -18.5145 -0.1995 9.2268 10.4502 -6.9700 -9.0638 -27.4248 13.5588 -5.4738 29.3587 29.0170 -64.7395 -8.8238 -0.0000 3.7736 -0.1061 2.0320 2.9896 33.1476 -0.0000 26.2537 -19.5820 4.8619 -42.3587 -42.9094 50.8318 -8.6572 12.1847 -0.0000 40.8653 -0.6059 -1.6549 -20.1103 32.8623 0.0000 -24.3270 11.5975 0.2750 -18.4653 -1.2774 0.0000 -0.0000 -32.9499 24.0747 2.6688 22.3079 -0.0000 0.0000 -23.6332 4.5475 24.9526 -1.6763 0.0000 -0.0000 -6.0044 -30.4783 -13.8937 20.4930 -0.0000 0.0000
 18.5427 32.6483 -17.4142 171.5531 6.5161 177.6265 -18.4066 -0.2304 9.4265 10.3211 -6.7984 -9.1652 -27.4140 13.5603 -5.4765 29.4141 28.9161 -64.9012 -8.8280 -0.0000 3.6220 -0.1009 1.9991 2.8911 33.1476 -0.0000 26.2537 -19.5910 4.8577 -42.2819 -43.0567 50.8556 -8.6164 12.3932 -0.0000 41.0086 -0.6107 -1.6575 -20.2298 32.8623 0.0000 -24.3270 11.5547 0.2486 -18.4765 -1.2631 -0.0000 -0.0000 -33.0789 24.1565 2.5431 23.2832 -0.0000 -0.0000 -23.6784 4.5671 24.9344 -1.6799 -0.0000 0.0000 -6.0240 -30.5375 -13.9473 20.4238 0.0000 -0.0000
 18.5135 32.6491 -17.4006 171.5388 6.5182 177.6047 -18.3172 -0.2594 9.6320 10.1855 -6.6266 -9.2635 -27.3832 13.5494 -5.4734 29.4572 28.7654 -65.0657 -8.7795 -0.0000 3.6072 -0.1009 2.0587 2.8060 33.1476 -0.0000 26.2537 -19.5755 4.8422 -42.2308 -43.1112 50.8338 -8.6501 12.6241 -0.0000 41.0143 -0.6407 -1.7140 -20.4989 32.8623 0.0000 -24.3270 11.5164 0.2693 -18.4832 -1.2437 -0.0000 0.0000 -33.0770 24.1359 2.3934 22.9805 -0.0000 0.0000 -23.7170 4.5842 24.9065 -1.7098 0.0000 0.0000 -6.0160 -30.6165 -13.8172 20.3450 0.0000 -0.0000
 18.4849 32.6504 -17.3862 171.5223 6.5102 177.5814 -18.2277 -0.2954 9.8343 10.0520 -6.4974 -9.3697 -27.3669 13.5439 -5.4746 29.4850 28.6102 -65.2104 -8.6838 -0.0000 3.4422 -0.1008 2.0074 2.8760 33.1476 -0.0000 26.2537 -19.7690 4.9504 -42.1817 -43.0508 50.8613 -8.5276 12.8010 -0.0000 41.1134 -0.6713 -1.7751 -20.7180 32.8623 0.0000 -24.3270 11.4766 0.2800 -18.4842 -1.2269 0.0000 -0.0000 -33.1589 24.1508 2.2248 23.9171 -0.0000 0.0000 -23.7661 4.6034 24.8914 -1.7262 0.0000 0.0000 -6.0857 -30.7042 -13.8815 20.4214 0.0000 0.0000
 18.4574 32.6519 -17.3708 171.4988 6.5033 177.5609 -18.1462 -0.3274 10.0260 9.9415 -6.3358 -9.4383 -27.3492 13.5172 -5.4665 29.4795 28.5850 -65.3390 -8.6203 -0.0000 3.5558 -0.1090 2.0291 3.0763 33.1476 -0.0000 26.2537 -19.6667 4.8534 -42.1322 -43.1413 50.8549 -8.6090 12.9477 -0.0000 41.0078 -0.7020 -1.8218 -21.0779 32.8623 0.0000 -24.3270 11.4083 0.2232 -18.4911 -1.2210 0.0000 -0.0000 -33.2251 24.2260 2.1144 24.3243 0.0000 -0.0000 -23.8195 4.6006 24.8777 -1.7342 -0.0000 0.0000 -6.1362 -30.8073 -13.9326 20.4343 -0.0000 0.0000
